<svg width="400" height="167" viewBox="0 0 400 167" fill="none" xmlns="http://www.w3.org/2000/svg">
<g clip-path="url(#clip0_25_2)">
<mask id="mask0_25_2" style="mask-type:luminance" maskUnits="userSpaceOnUse" x="0" y="0" width="400" height="167">
<path d="M400 0H0V167H400V0Z" fill="white"/>
</mask>
<g mask="url(#mask0_25_2)">
<mask id="mask1_25_2" style="mask-type:luminance" maskUnits="userSpaceOnUse" x="0" y="0" width="400" height="167">
<path d="M400 0H0V167H400V0Z" fill="white"/>
</mask>
<g mask="url(#mask1_25_2)">
<path d="M236.392 0.103027C233.551 0.103027 230.819 0.721536 228.414 1.7524C224.808 4.0203 220.545 5.15425 217.157 7.42215C211.037 14.3289 205.463 21.545 204.371 30.1011C202.731 23.1943 204.698 15.3598 203.168 7.93759C202.294 7.21598 202.076 6.18512 200.983 5.46352C199.015 4.845 196.611 4.12339 194.425 5.05116C192.458 5.87586 192.895 8.6592 190.272 9.07154C182.513 15.7721 191.474 24.3283 189.179 32.0598C181.638 32.8845 188.414 25.4622 184.261 23.2974C185.464 19.8956 185.026 15.3598 184.261 11.8548C182.513 9.89623 179.89 7.21599 176.939 8.86537C175.19 10.4116 174.972 12.4734 173.442 14.0197C167.431 13.7104 172.567 22.0604 166.447 19.8956C163.606 23.1943 158.032 21.2357 154.644 23.5036C152.567 21.3388 154.862 18.8647 153.879 16.3906C150.819 9.79314 145.354 17.0092 141.529 16.803C138.36 17.9369 137.813 21.3388 137.813 24.1221C132.021 25.9777 125.463 22.5758 119.562 25.0499C116.502 25.6684 115.627 28.4517 114.972 30.6166C113.442 33.7091 116.174 36.0801 118.141 38.348C121.201 40.5129 124.917 41.1314 128.633 41.5437C131.256 42.4715 135.3 40.8221 137.485 42.7808C137.704 49.069 135.737 58.0375 140.327 63.398C143.059 64.9443 146.447 64.8412 149.179 63.0888C158.141 58.4499 152.567 48.6567 154.316 41.4406C154.425 41.1314 154.753 41.0283 154.972 40.719C157.376 41.3375 159.453 40.1005 161.42 39.482C167.868 37.9357 162.185 45.5641 166.884 47.4196C172.677 49.3783 169.507 56.5943 171.693 60.8209C173.66 63.5011 177.485 64.4289 180.655 63.8104C181.966 63.1919 183.059 61.9548 182.513 60.5116C186.884 57.419 185.026 51.2338 185.136 46.8011C186.556 47.7289 188.633 46.3888 189.726 47.7289C188.961 52.6771 189.944 56.3882 191.037 60.924C192.458 63.295 195.081 62.7795 197.485 63.2949C199.78 62.5733 202.294 61.7487 203.715 60.3054C204.48 58.7592 206.338 56.5943 204.371 55.1511C207.649 49.7906 200.218 44.1209 205.354 39.0696C205.901 40.6159 205.901 42.0592 206.338 43.6055C211.256 49.2752 217.376 57.1098 226.447 57.7283C231.147 58.9653 235.846 59.2746 240.436 58.3468C243.496 58.553 245.354 56.3882 247.977 55.8727C253.879 52.6771 262.731 48.7598 260.873 40.8221C262.513 39.482 262.95 37.6264 263.168 35.6678C262.076 34.3277 260.327 32.5752 258.578 32.2659C254.862 30.8227 251.802 34.74 250.163 36.8017C244.808 37.4203 241.31 42.0592 235.846 41.3376C236.83 40.2036 238.36 40.3067 238.906 38.9666C243.496 37.3172 246.775 32.8845 248.414 28.9672C247.54 21.9573 251.256 11.6487 245.573 5.25735C242.95 3.60797 241.42 2.26783 239.015 0.412274C238.36 0.206101 237.376 0.103027 236.392 0.103027ZM231.147 19.5863C232.349 20.411 235.846 20.9264 234.097 23.0912C230.709 22.1635 227.868 28.6579 226.119 24.4314C228.961 23.8129 228.305 20.1017 231.147 19.5863Z" fill="black"/>
<path d="M235.41 1.54639C225.902 1.75256 221.967 11.7519 217.158 17.4217C216.175 22.4729 210.164 27.318 214.208 32.4723C214.973 35.4618 214.645 38.8637 215.738 41.8532C220.437 45.4612 222.404 52.0588 230.055 50.6155C235.082 52.9865 240.546 50.2032 245.464 49.3785C250.601 44.6365 260.437 42.781 260.984 35.668C259.781 35.1526 258.47 33.9155 256.94 33.7094C254.426 34.431 253.989 36.802 251.585 38.4513C244.262 38.4513 240.546 45.0489 233.005 44.4304C230.164 43.1933 226.011 43.5026 224.044 40.41C223.825 38.9668 222.404 35.8742 225.027 35.0495C235.301 36.905 241.311 28.2458 246.557 22.576C246.776 18.968 247.541 15.5661 246.994 11.855C246.229 9.69021 245.027 7.42231 244.699 5.46367C242.404 5.36059 240.765 2.57725 238.688 1.75255C237.377 1.64947 236.393 1.54639 235.41 1.54639ZM235.191 9.38096C236.721 9.27787 238.142 9.99947 239.344 11.7519C242.732 17.0094 236.175 20.8236 234.535 25.4624C230.71 25.3594 227.213 30.1013 223.388 26.4933C222.295 22.6791 226.448 19.2773 226.995 15.1538C228.415 13.1952 231.913 9.58713 235.191 9.38096Z" fill="#ED5AA0"/>
<path d="M201.202 8.45301C203.06 17.0091 198.579 26.6993 204.481 33.6061C205.683 35.7709 202.951 37.5233 202.404 39.3789C200.219 44.1209 203.497 48.2443 203.279 53.0894C202.186 55.048 200 54.8419 197.705 54.6357C195.41 53.6048 197.049 50.3061 195.956 48.5536C194.208 45.7703 197.814 39.5851 191.585 39.7913C189.945 41.1314 187.213 40.3067 185.137 40.719C179.891 45.8733 186.667 52.2647 181.749 57.6252C180 58.1406 178.579 56.9036 177.705 55.6666C177.924 51.0277 176.721 46.9042 175.738 42.7807C174.317 41.2345 169.727 40.9252 171.913 37.5233C172.459 34.4307 177.377 34.5338 177.377 31.2351C178.579 24.7406 177.377 18.3493 177.486 12.061C178.47 10.7209 179.781 10.3085 181.421 10.4116C181.53 14.1227 184.918 17.9369 182.186 21.5449C184.372 24.7406 182.404 28.2456 183.716 31.7505C185.464 34.5338 189.945 33.8122 192.896 33.2968C193.88 32.6783 194.863 32.4721 195.738 31.4412C193.661 24.8437 195.519 15.5659 194.536 7.93758C195.956 5.56659 200.109 5.97893 201.202 8.45301Z" fill="#ED5AA0"/>
<path d="M152.021 21.339C150.709 22.2668 152.895 23.0915 151.802 23.9161C156.939 27.6273 162.622 22.6791 168.086 22.0606C169.944 23.2976 169.616 25.9779 169.179 27.6273C165.354 31.7507 159.562 33.9155 153.442 34.2248C150.491 35.5649 150.928 38.5544 151.693 40.7192C152.895 45.7705 151.802 52.1618 151.802 57.11C151.256 59.0686 149.07 59.1717 147.649 60.2026C144.808 58.9655 144.152 55.7699 145.026 53.1927C145.245 47.2137 145.136 43.3995 144.48 37.4205C140.983 32.8847 133.769 36.2865 128.961 34.0186C125.791 34.8433 123.387 32.9877 121.638 31.3384C120.655 29.9982 122.075 28.7612 122.403 27.4211C123.824 26.2871 126.119 25.7717 127.977 26.4933C133.442 25.5655 141.31 29.4828 144.48 23.8131C145.026 21.6483 142.731 17.8341 146.775 17.3186C148.305 16.8032 150.054 14.7415 151.584 15.9785C151.037 18.1433 152.458 18.968 152.021 21.339Z" fill="#ED5AA0"/>
<path d="M69.6171 39.7915C51.0378 42.0594 36.7209 50.7186 21.2018 58.9655C18.0324 62.6766 13.2236 64.0168 11.1471 68.5526C5.24552 72.3668 3.49689 78.655 1.42039 84.2217C-3.16978 100.922 14.2072 110.509 26.6663 118.343C32.0214 123.394 39.8903 125.868 45.1362 130.714C52.6772 134.322 60.7646 136.28 67.8684 140.713C67.5406 141.022 67.1034 141.435 66.6663 141.744C60.8739 142.259 53.5515 141.744 46.9941 141.641C40.1089 143.806 32.8958 142.156 26.557 139.785C22.1854 138.96 17.4859 140.404 14.7537 143.187C10.3821 142.981 7.54061 145.764 5.79197 148.341C4.69908 151.228 6.22913 154.32 6.99416 157.001C8.30563 159.681 11.475 161.021 14.3165 161.639C27.9777 167.515 42.404 163.495 57.3766 166.072C63.0597 167.722 69.0706 166.897 74.4258 164.732C81.4204 161.949 91.2564 158.65 91.3657 150.197C95.8466 149.166 93.6608 138.342 98.9067 144.321C101.858 145.043 105.355 146.898 108.634 144.94C110.164 142.981 113.224 141.847 111.913 139.27C115.847 138.033 115.301 134.219 117.596 131.951C119.672 134.425 121.311 137.62 123.825 139.579C126.995 139.579 129.071 142.053 133.115 141.022C135.847 139.27 137.814 136.899 138.142 134.012C141.967 132.26 139.891 127.415 143.06 125.25C143.716 128.033 147.541 128.343 149.508 130.095C156.831 129.786 157.705 122.57 160.765 118.343C160.984 125.147 155.847 134.115 161.53 140.198C164.153 142.465 167.213 143.702 171.148 142.981C171.803 141.95 174.426 142.672 173.552 140.816C176.94 138.96 174.863 135.249 176.393 132.878C178.47 129.167 176.612 124.219 179.126 120.611C189.29 121.23 181.749 131.126 186.557 135.456C188.087 137.62 191.475 138.754 194.973 137.93C202.404 136.177 200.874 128.343 202.404 123.085C207.213 123.601 211.694 121.642 216.284 121.127C218.251 120.405 219.672 118.652 222.186 119.065C226.776 116.385 225.355 111.127 226.557 106.901C228.634 109.684 230.929 113.086 235.301 114.014C236.393 115.354 236.721 117.312 236.175 118.343C233.77 119.168 231.038 119.683 228.743 120.714C228.306 121.127 227.65 121.642 227.978 122.26C224.372 122.982 221.093 125.353 220.219 128.652C220.546 131.332 219.672 135.249 222.842 137.002C230.164 139.888 239.016 141.228 246.557 137.723C251.038 134.322 260.765 133.085 258.907 125.559C261.53 129.064 261.967 132.981 266.12 135.559C270.492 140.404 276.612 139.579 282.514 138.342C284.372 137.723 284.809 136.589 286.776 136.383C291.475 133.085 292.787 128.446 296.831 125.353C298.47 123.704 298.142 121.23 299.781 119.889C301.639 125.044 296.94 128.755 298.361 134.219C298.798 136.28 300.656 137.62 302.841 138.033C305.464 137.311 309.18 136.59 309.508 133.6C313.443 131.641 314.973 128.136 317.705 125.765C320.328 129.064 321.967 132.775 325.574 135.146C331.913 135.662 333.005 129.373 337.814 126.59C341.749 122.26 340.984 114.838 340.219 108.859C340.546 108.55 340.656 108.447 340.984 108.138C342.841 116.075 355.628 116.075 354.754 124.219C353.88 127.209 350.273 127.827 347.76 129.064C345.355 130.198 340.765 129.58 340.546 133.188C337.158 132.672 334.863 135.146 333.224 137.414C333.333 139.888 334.426 142.156 335.847 144.012C340 147.62 345.902 147.62 351.585 146.795C361.749 143.084 373.333 139.476 376.066 128.343C375.301 126.178 376.721 123.91 378.142 121.848C378.907 118.652 380.219 114.941 376.612 112.673C377.268 107.519 370.601 108.241 367.978 105.045C364.699 102.88 360.219 99.7877 360 96.3859C362.295 94.0149 365.574 94.118 368.415 92.4686C370.273 92.2624 369.945 94.118 370.055 95.2519C370.382 98.0353 373.443 98.9631 375.956 100.2C380.109 101.643 381.858 97.4168 384.59 95.5612C383.497 93.3964 386.448 92.2624 383.934 90.51C388.415 87.6235 386.229 81.1291 386.448 76.0779C383.934 73.9131 380.765 70.9235 377.049 69.9958C363.716 67.934 352.35 73.9131 345.246 82.7785C343.388 86.1803 340.984 89.4791 339.672 93.0871C336.503 88.2421 334.098 82.2631 328.634 79.4797C326.776 79.0674 325.683 80.2013 324.372 81.1291C322.623 84.8402 320.328 87.9328 317.596 91.3347C315.956 95.355 320.656 97.4167 322.732 100.406C323.279 101.849 323.716 104.117 322.514 105.354C320.656 104.427 318.798 103.189 316.393 103.086C313.88 98.4476 309.071 102.468 305.246 102.365C301.421 102.777 298.688 106.694 297.814 109.375C296.503 107.004 296.94 104.014 294.863 101.952C291.694 98.2414 286.339 97.9322 282.186 95.9736C280.765 93.7057 276.612 94.6334 274.645 94.0149C264.262 94.4273 262.514 104.22 257.923 110.302C255.519 107.828 253.005 105.354 250.492 103.086C249.617 101.334 248.962 99.2723 247.104 98.1384C246.995 95.1489 251.585 96.2828 253.005 95.4581C257.596 94.0149 263.279 95.1489 267.213 92.4686C267.65 91.1285 268.087 88.9637 266.339 87.9328C264.918 86.6958 266.776 85.5618 267.322 84.3248C266.667 80.7168 265.355 76.9026 261.749 74.8408C255.191 73.1915 249.727 77.6242 243.934 79.4797C241.749 81.1291 239.235 81.8507 236.393 82.16C230.82 84.3248 226.011 88.139 224.918 93.9118C222.076 88.5513 218.142 82.3661 211.148 79.789C204.918 78.3458 198.688 81.2322 193.333 83.7063C184.481 87.7266 184.372 97.0044 185.246 104.633C186.229 108.447 179.672 107.416 177.486 109.787C174.645 105.148 177.268 99.4785 176.066 94.2211C174.645 91.8501 171.913 89.4791 168.743 89.376C165.464 85.6649 163.388 91.9532 161.202 91.8501C160.984 91.4377 160.219 90.8192 159.235 91.1285C156.284 92.5717 154.208 95.355 153.552 98.5507C150.929 96.3859 152.131 92.1593 148.525 90.0976C145.137 88.5513 142.076 87.3143 138.033 88.4482C135.519 89.7884 135.082 93.7056 131.257 91.747C128.962 92.0563 126.995 93.0871 125.355 94.9427C120.219 104.014 120.656 115.044 117.268 124.838C116.721 124.941 116.393 124.425 116.066 124.116C119.016 118.652 118.142 112.364 117.377 106.488C119.672 101.437 115.847 97.0044 115.191 92.2624C113.77 89.2729 110.164 87.9328 106.667 88.3451C105.027 87.9328 104.262 91.5408 102.732 89.4791C100.765 90.2007 98.9067 91.1285 97.158 92.5717C94.9723 96.2828 94.4258 101.54 96.1745 105.767C95.8466 115.766 96.8302 123.601 93.5515 132.672C89.0706 129.27 84.5897 125.868 79.6717 123.498C68.7427 119.993 59.8903 111.643 49.0706 108.138C49.0706 107.828 49.0706 107.725 49.0706 107.416C40.6553 105.045 34.6444 98.0353 27.9777 93.0871C29.1799 89.1698 21.9668 89.6853 24.9176 86.0772C25.5734 77.5211 34.863 72.3668 43.169 69.6865C47.1034 70.0989 49.7264 67.6248 53.5515 67.3155C61.0925 63.1921 70.2728 63.2951 78.9067 63.6044C81.9668 65.2538 79.9996 69.7896 82.9504 71.9544C86.7755 75.4594 93.8794 74.0161 98.1417 72.676C100.874 71.5421 99.1253 68.7587 99.5624 66.8001C103.279 63.8106 101.749 58.6563 101.749 54.9452C100.874 50.8217 97.0488 46.389 92.6772 45.3581C86.4477 39.7914 77.5952 40.5131 69.6171 39.7915ZM205.683 94.3242C207.213 97.3137 209.727 99.8908 209.617 103.396C207.541 103.396 200.656 105.973 203.497 101.231C204.809 99.1692 203.716 96.1797 205.683 94.3242ZM279.454 111.643C283.388 113.292 280.109 118.652 284.918 119.374C285.246 120.302 284.59 121.023 283.825 121.23C281.639 121.127 279.344 121.642 277.486 121.023C276.393 117.622 276.94 114.014 279.454 111.643Z" fill="black"/>
<path d="M85.6825 43.9149C90.7099 47.3168 99.8902 48.76 99.6716 56.3884C99.5623 59.2748 101.093 63.5013 97.2672 64.6353C89.8355 66.0785 97.0487 57.3162 89.2891 57.0069C74.9721 50.2032 57.3765 56.2853 43.7153 60.6149C39.7809 65.5631 31.147 62.7797 28.0869 69.4804C21.9667 70.5112 21.0924 76.5933 20.2181 81.026C21.4202 84.8402 21.4202 89.7884 25.464 91.6439C26.994 97.0044 33.9885 99.7878 37.3765 104.117C40.4366 105.457 43.7153 108.138 47.2126 109.169C61.2017 117.209 77.0487 123.188 90.4913 132.775C90.382 134.425 92.6771 134.012 93.1142 135.559C94.535 142.259 92.2399 147.826 86.5569 152.052C81.6388 154.733 76.0651 153.186 71.9121 156.898C67.4312 158.341 61.7481 155.97 57.158 158.135C50.6006 158.135 45.2454 155.97 38.7973 156.176C31.912 154.939 24.0432 154.217 17.8137 150.815C15.7372 149.269 16.5022 145.867 16.7208 143.702C18.7973 141.744 23.2782 141.538 26.6661 142.053C31.5842 143.496 36.5022 144.733 41.9667 144.321C51.2563 142.053 60.6552 146.28 68.9612 142.362C72.0213 142.259 75.4093 143.599 77.8137 142.362C80.3274 142.981 81.6388 141.022 83.7153 141.125C85.9011 139.579 83.2782 138.136 82.4038 136.899C75.6279 135.868 75.4093 127.415 67.759 129.167C58.688 123.085 48.3055 119.993 39.2345 114.838C36.5022 112.983 35.5186 108.962 31.0377 109.787C27.1033 107.931 25.3547 103.705 21.0924 102.468C19.6716 99.7878 14.6443 99.5816 14.8629 96.2828C11.912 93.9118 12.2399 90.0976 9.72627 87.5205C6.99402 81.3353 12.0213 76.7995 12.2399 71.0266C14.9722 67.1094 19.9995 65.6662 21.8574 61.0273C38.3601 51.131 55.5186 41.4409 76.8301 42.0594C79.5623 43.3995 82.7317 43.2964 85.6825 43.9149Z" fill="#ED5AA0"/>
<path d="M379.234 73.3974C387.54 75.0468 383.059 82.469 384.589 87.0048C383.387 89.1696 380.327 88.8604 378.25 88.448C376.611 85.5616 379.343 82.469 375.409 80.7166C369.944 81.3351 364.698 82.9845 361.31 87.211C357.704 89.8913 359.343 94.2209 356.83 97.3135C360.545 103.396 367.321 106.282 373.332 110.612C374.316 114.323 378.797 117.415 376.174 121.642C372.458 128.961 364.917 132.363 358.032 136.59C352.677 136.074 347.759 141.228 343.168 137.105C339.78 129.992 349.507 132.26 352.349 128.858C357.485 127.518 363.059 125.765 365.791 121.23C366.556 117.828 363.387 115.869 360.655 114.22C355.627 113.189 355.081 107.519 349.507 106.694C347.54 101.849 346.01 96.3857 348.633 91.4376C350.709 83.4999 358.906 77.1085 366.775 74.0159C368.414 71.4388 371.912 72.0573 374.753 72.3666C375.955 73.8098 378.032 72.4696 379.234 73.3974Z" fill="#ED5AA0"/>
<path d="M263.387 79.6857C264.917 80.8196 264.043 82.9845 264.48 84.5308C259.234 87.8295 250.819 85.8709 247.103 91.2314C242.513 91.953 246.447 95.9733 244.261 98.4474C247.431 104.22 253.332 108.138 256.83 113.807C258.141 117.415 257.157 121.023 256.392 124.838C251.037 131.126 240.983 131.538 232.677 131.023C229.616 129.167 229.944 125.456 230.382 122.467C235.081 118.962 242.731 121.436 246.994 117.312C245.901 113.395 242.841 109.065 238.36 107.622C234.644 101.746 230.709 94.324 235.955 88.0357C241.748 83.4999 247.649 79.8919 254.425 77.0054C257.704 77.0054 262.076 76.0777 263.387 79.6857Z" fill="#ED5AA0"/>
<path d="M205.682 81.4383C202.731 81.3352 202.076 84.1185 199.234 84.5309C193.988 90.8191 192.349 98.4475 192.458 106.488C190.491 107.931 187.868 108.138 185.354 108.55C181.638 110.096 186.338 112.467 184.48 114.941C185.901 116.075 187.54 115.766 189.398 115.972C191.912 117.209 191.147 119.993 191.912 121.951C192.677 124.116 192.349 127.002 194.207 128.755C204.917 129.889 196.611 118.652 201.31 114.22C208.086 115.148 214.097 112.777 220.436 111.849C221.748 109.065 226.229 107.004 223.606 103.602C225.573 99.0661 221.201 95.1488 220.764 90.7161C217.267 86.1803 213.223 81.2321 206.447 81.6444C206.119 81.4383 205.901 81.4383 205.682 81.4383ZM207.431 89.2729C214.097 88.8605 212.458 96.1796 216.939 99.0661C218.36 100.406 217.813 101.437 217.376 102.983C216.283 105.354 212.895 104.53 210.819 105.251C207.54 105.354 204.261 107.107 201.201 105.56C199.78 102.365 203.606 99.5815 202.076 96.2827C204.152 94.1179 203.824 90.0975 207.431 89.2729Z" fill="#ED5AA0"/>
<path d="M337.158 94.4273C336.503 104.117 341.858 118.756 329.617 124.219C324.59 125.353 321.53 120.714 318.579 118.24C316.503 120.302 316.503 123.498 314.317 125.765C312.459 127.93 310.383 131.229 306.557 130.61C306.776 127.415 306.557 124.322 308.197 121.642C306.885 117.828 308.415 114.014 309.508 110.612C308.197 109.581 308.525 107.416 308.962 105.973C310.055 104.839 310.382 102.674 312.35 102.983C313.989 105.973 317.486 104.427 319.563 106.385C322.623 108.241 323.388 114.014 328.634 113.189C331.913 111.024 328.525 106.798 331.148 104.427C330.055 99.7877 329.727 95.1489 325.902 91.747C326.448 91.1285 326.12 90.3038 326.339 89.4791C324.809 88.3452 323.497 87.9328 324.59 85.9742C326.011 84.7371 325.137 82.3661 327.541 81.5415C333.224 84.1186 334.317 89.9945 337.158 94.4273Z" fill="#ED5AA0"/>
<path d="M113.114 93.4993C113.114 98.4474 117.704 102.88 114.535 107.725C117.157 111.643 113.66 115.869 114.972 119.786C111.584 124.941 117.595 131.229 112.458 136.383C110.163 137.517 108.196 137.208 105.682 136.899C103.606 134.115 104.917 130.095 103.824 127.002C105.245 119.786 106.884 113.601 105.682 106.179C109.289 101.54 103.059 94.9425 107.103 90.4067C110.272 89.2727 112.021 91.7468 113.114 93.4993Z" fill="#ED5AA0"/>
<path d="M148.743 93.7053C150.055 98.8596 152.896 103.396 154.536 108.55C155.191 108.859 155.519 109.993 156.503 109.478C159.126 107.519 158.47 104.427 159.016 101.54C162.186 98.2411 162.842 93.9115 166.23 90.5096C169.071 90.922 172.35 92.159 173.552 94.6331C174.317 101.025 172.678 106.591 175.738 112.364C176.831 118.962 174.536 124.322 174.426 131.332C173.005 132.569 171.038 135.352 168.525 134.425C166.995 132.878 166.339 130.507 167.104 128.446C169.399 122.673 168.634 116.9 168.415 110.818C167.432 110.302 167.432 108.962 166.011 108.859C162.514 109.375 161.858 112.983 159.781 115.044C157.705 117.209 157.049 121.127 152.459 120.302C147.432 118.549 149.508 112.055 144.918 109.89C145.027 107.931 145.902 104.942 143.825 103.499C140.219 104.839 140.984 108.756 140.437 111.849C137.049 114.838 142.623 118.137 139.235 121.23C140 124.631 139.016 129.683 135.628 132.054C132.787 131.332 130.273 131.023 128.962 128.239C128.634 120.199 131.366 113.086 131.803 105.354C133.77 103.396 131.694 101.334 132.678 99.272C135.082 96.1794 135.738 91.5405 140 90.0973C143.607 89.8911 146.995 90.922 148.743 93.7053Z" fill="#ED5AA0"/>
<path d="M277.814 96.6948C277.486 96.6948 277.268 96.6948 276.94 96.6948C266.885 99.9936 274.973 109.89 266.776 114.117C265.792 119.374 267.213 124.528 271.038 128.239C274.208 132.466 280.546 130.404 286.011 130.714C289.071 128.961 291.366 127.827 294.098 125.662C298.142 121.848 297.486 114.838 295.519 110.302C295.191 105.973 292.896 103.293 289.508 100.509C285.355 100.819 282.186 96.901 277.814 96.6948ZM283.388 107.416C285.355 107.519 287.213 108.447 288.197 110.199C289.071 111.952 290.055 114.117 289.29 116.281C285.792 117.415 288.634 122.157 284.699 122.776C281.311 122.054 275.301 125.147 274.645 120.611C273.989 116.178 276.175 112.467 277.705 108.756C279.344 107.828 281.421 107.313 283.388 107.416Z" fill="#ED5AA0"/>
<path d="M383.825 136.899H381.421V135.249H388.415V136.899H385.902V143.909H383.825V136.899Z" fill="black"/>
<path d="M397.268 140.61C397.268 139.579 397.158 138.342 397.158 137.002C396.831 138.136 396.503 139.373 396.175 140.404L395.082 143.806H393.443L392.459 140.507C392.131 139.476 391.803 138.239 391.585 137.105C391.585 138.239 391.475 139.579 391.475 140.713L391.257 144.012H389.29L389.836 135.352H392.568L393.443 138.239C393.77 139.27 393.989 140.301 394.208 141.331H394.317C394.535 140.301 394.863 139.167 395.191 138.239L396.175 135.352H398.907L399.344 144.012H397.377L397.268 140.61Z" fill="black"/>
</g>
</g>
</g>
<defs>
<clipPath id="clip0_25_2">
<rect width="400" height="167" fill="white"/>
</clipPath>
</defs>
</svg>
